<svg width="84" height="84" viewBox="0 0 84 84" fill="none" xmlns="http://www.w3.org/2000/svg">
<g filter="url(#filter0_d_39_225)">
<circle cx="42" cy="38" r="31" fill="#022C58"/>
</g>
<g clip-path="url(#clip0_39_225)">
<path d="M47.587 23.4351C47.587 26.6075 45.8239 29.3648 43.2126 30.788L42.4984 23.3091C42.4166 22.4492 41.9331 21.6932 41.2189 21.2707C40.6014 20.9149 39.917 20.737 39.2325 20.737C38.5035 20.737 37.7819 20.9372 37.1346 21.3374C36.2196 21.9081 35.6542 22.9384 35.6542 24.0577V31.0622C32.7528 29.7428 30.7293 26.8224 30.7293 23.4351C30.7293 18.795 34.5085 15.037 39.1582 15.037C43.8078 15.037 47.587 18.795 47.587 23.4351Z" fill="#FA0D0A"/>
<path d="M36.4205 55.6484H52.7053C53.0698 55.6484 53.4121 55.4631 53.6055 55.1518C54.275 54.0622 55.7852 51.4976 55.7852 50.5118V41.2243C55.7852 40.7277 55.5992 40.2459 55.257 39.8753L54.6544 39.2156C54.4238 38.9636 54.1262 38.7709 53.7989 38.6597L45.7569 35.9987C45.318 35.8505 44.8567 35.7838 44.3955 35.806C43.8524 35.8357 43.1308 35.9024 42.6249 36.0877C42.5357 36.1173 42.4464 36.0729 42.4315 35.9839C42.1562 34.3755 41.3453 26.7928 41.0552 24.0651C40.9883 23.4499 40.6312 22.9014 40.0955 22.5901C39.4929 22.2417 38.7416 22.2788 38.1762 22.6864C37.5364 23.1534 37.1495 23.8872 37.1421 24.6803L36.9635 44.1447C36.9635 44.5228 36.6288 44.8118 36.2494 44.7599C35.1855 44.6043 33.1694 44.0261 31.8378 41.884C31.5105 41.3577 30.9823 40.9649 30.3648 40.8611C29.3233 40.6832 28.7579 41.291 28.4008 41.8395C28.2222 42.1064 28.1776 42.4399 28.2594 42.7512C28.7951 44.7896 31.2129 53.1061 35.7137 55.4928C35.9295 55.604 36.1675 55.6559 36.413 55.6559L36.4205 55.6484Z" fill="white"/>
<path d="M52.5491 57.2198H36.8147C36.3258 57.2198 35.9294 57.6147 35.9294 58.1019V60.0735C35.9294 60.5607 36.3258 60.9556 36.8147 60.9556H52.5491C53.038 60.9556 53.4344 60.5607 53.4344 60.0735V58.1019C53.4344 57.6147 53.038 57.2198 52.5491 57.2198Z" fill="#10840D"/>
</g>
<defs>
<filter id="filter0_d_39_225" x="0.8" y="0.8" width="82.4" height="82.4" filterUnits="userSpaceOnUse" color-interpolation-filters="sRGB">
<feFlood flood-opacity="0" result="BackgroundImageFix"/>
<feColorMatrix in="SourceAlpha" type="matrix" values="0 0 0 0 0 0 0 0 0 0 0 0 0 0 0 0 0 0 127 0" result="hardAlpha"/>
<feOffset dy="4"/>
<feGaussianBlur stdDeviation="5.1"/>
<feComposite in2="hardAlpha" operator="out"/>
<feColorMatrix type="matrix" values="0 0 0 0 0 0 0 0 0 0 0 0 0 0 0 0 0 0 0.12 0"/>
<feBlend mode="normal" in2="BackgroundImageFix" result="effect1_dropShadow_39_225"/>
<feBlend mode="normal" in="SourceGraphic" in2="effect1_dropShadow_39_225" result="shape"/>
</filter>
<clipPath id="clip0_39_225">
<rect width="27.5556" height="45.9259" fill="white" transform="translate(28.2222 15.037)"/>
</clipPath>
</defs>
</svg>
