<svg width="20" height="20" viewBox="0 0 20 20" fill="none" xmlns="http://www.w3.org/2000/svg">
<path d="M10.3083 7.40002H14.6834" stroke="#5B5B5B" stroke-linecap="round" stroke-linejoin="round"/>
<path d="M5.31665 7.40002L5.94165 8.02502L7.81665 6.15002" stroke="#5B5B5B" stroke-linecap="round" stroke-linejoin="round"/>
<path d="M10.3083 13.2333H14.6834" stroke="#5B5B5B" stroke-linecap="round" stroke-linejoin="round"/>
<path d="M5.31665 13.2333L5.94165 13.8583L7.81665 11.9833" stroke="#5B5B5B" stroke-linecap="round" stroke-linejoin="round"/>
<path d="M7.50008 18.3334H12.5001C16.6667 18.3334 18.3334 16.6667 18.3334 12.5V7.50002C18.3334 3.33335 16.6667 1.66669 12.5001 1.66669H7.50008C3.33341 1.66669 1.66675 3.33335 1.66675 7.50002V12.5C1.66675 16.6667 3.33341 18.3334 7.50008 18.3334Z" stroke="#5B5B5B" stroke-linecap="round" stroke-linejoin="round"/>
<path opacity="0.33" d="M12.2 12H15.8C18.8 12 20 10.8 20 7.8V4.2C20 1.2 18.8 0 15.8 0H12.2C9.2 0 8 1.2 8 4.2V7.8C8 10.8 9.2 12 12.2 12Z" fill="#5B5B5B"/>
</svg>
