<svg width="46" height="46" viewBox="0 0 46 46" fill="none" xmlns="http://www.w3.org/2000/svg">
<rect width="46" height="46" rx="4" fill="#F5F5F5"/>
<path d="M23 23C25.7614 23 28 20.7614 28 18C28 15.2386 25.7614 13 23 13C20.2386 13 18 15.2386 18 18C18 20.7614 20.2386 23 23 23Z" stroke="#022C58" stroke-width="1.2" stroke-linecap="round" stroke-linejoin="round"/>
<path d="M31.5901 33C31.5901 29.13 27.7402 26 23.0002 26C18.2602 26 14.4102 29.13 14.4102 33" stroke="#022C58" stroke-width="1.2" stroke-linecap="round" stroke-linejoin="round"/>
<path opacity="0.8" d="M25.5 22C28.2614 22 30.5 19.7614 30.5 17C30.5 14.2386 28.2614 12 25.5 12C22.7386 12 20.5 14.2386 20.5 17C20.5 19.7614 22.7386 22 25.5 22Z" fill="url(#paint0_linear_541_3351)"/>
<defs>
<linearGradient id="paint0_linear_541_3351" x1="25.5" y1="12" x2="25.5" y2="22" gradientUnits="userSpaceOnUse">
<stop stop-color="#CC375B"/>
<stop offset="1" stop-color="#CC375B" stop-opacity="0.11"/>
</linearGradient>
</defs>
</svg>
