<svg width="21" height="20" viewBox="0 0 21 20" fill="none" xmlns="http://www.w3.org/2000/svg">
<path d="M5.05004 15.4085V12.9752C5.05004 12.1668 5.68337 11.4418 6.58337 11.4418C7.39171 11.4418 8.11671 12.0752 8.11671 12.9752V15.3168C8.11671 16.9418 6.76671 18.2918 5.14171 18.2918C3.51671 18.2918 2.16671 16.9335 2.16671 15.3168V10.1835C2.07504 5.50016 5.77504 1.7085 10.4584 1.7085C15.1417 1.7085 18.8334 5.50016 18.8334 10.0918V15.2252C18.8334 16.8502 17.4834 18.2002 15.8584 18.2002C14.2334 18.2002 12.8834 16.8502 12.8834 15.2252V12.8835C12.8834 12.0752 13.5167 11.3502 14.4167 11.3502C15.225 11.3502 15.95 11.9835 15.95 12.8835V15.4085" stroke="#9DB2CE" stroke-width="1.3" stroke-linecap="round" stroke-linejoin="round"/>
</svg>
