<svg width="21" height="20" viewBox="0 0 21 20" fill="none" xmlns="http://www.w3.org/2000/svg">
<path d="M17.2001 5.68336L12.4001 2.32503C11.0918 1.40836 9.08345 1.45836 7.82511 2.43336L3.65011 5.6917C2.81678 6.3417 2.15845 7.67503 2.15845 8.72503V14.475C2.15845 16.6 3.88345 18.3334 6.00845 18.3334H14.9918C17.1168 18.3334 18.8418 16.6084 18.8418 14.4834V8.83336C18.8418 7.70836 18.1168 6.32503 17.2001 5.68336ZM11.1251 15C11.1251 15.3417 10.8418 15.625 10.5001 15.625C10.1584 15.625 9.87511 15.3417 9.87511 15V12.5C9.87511 12.1584 10.1584 11.875 10.5001 11.875C10.8418 11.875 11.1251 12.1584 11.1251 12.5V15Z" fill="#022C58"/>
</svg>
