<svg width="64" height="64" viewBox="0 0 64 64" fill="none" xmlns="http://www.w3.org/2000/svg">
<g filter="url(#filter0_d_542_3648)">
<circle cx="32" cy="28" r="21" fill="#022C58"/>
</g>
<g clip-path="url(#clip0_542_3648)">
<path d="M35.6496 18.4858C35.6496 20.5581 34.4978 22.3593 32.7921 23.2889L32.3256 18.4035C32.2721 17.8418 31.9563 17.348 31.4897 17.072C31.0864 16.8396 30.6393 16.7234 30.1922 16.7234C29.716 16.7234 29.2446 16.8541 28.8218 17.1156C28.2241 17.4884 27.8548 18.1614 27.8548 18.8925V23.468C25.9595 22.6062 24.6377 20.6985 24.6377 18.4858C24.6377 15.4548 27.1064 13 30.1436 13C33.1809 13 35.6496 15.4548 35.6496 18.4858Z" fill="#FA0D0A"/>
<path d="M28.3553 39.5284H38.993C39.2311 39.5284 39.4547 39.4074 39.581 39.204C40.0184 38.4923 41.0049 36.817 41.0049 36.173V30.1062C41.0049 29.7818 40.8834 29.4671 40.6598 29.225L40.2662 28.7941C40.1156 28.6294 39.9212 28.5036 39.7074 28.4309L34.4541 26.6927C34.1674 26.5959 33.8661 26.5523 33.5648 26.5668C33.2101 26.5862 32.7387 26.6298 32.4082 26.7508C32.3499 26.7702 32.2916 26.7411 32.2819 26.683C32.1021 25.6323 31.5724 20.6791 31.3828 18.8974C31.3391 18.4955 31.1058 18.1372 30.756 17.9338C30.3623 17.7063 29.8715 17.7305 29.5022 17.9968C29.0842 18.3018 28.8316 18.7812 28.8267 19.2992L28.7101 32.0139C28.7101 32.2608 28.4914 32.4496 28.2435 32.4158C27.5486 32.3141 26.2317 31.9364 25.3618 30.5371C25.148 30.1934 24.8029 29.9367 24.3996 29.8689C23.7192 29.7527 23.3499 30.1498 23.1166 30.5081C23 30.6824 22.9709 30.9003 23.0243 31.1036C23.3742 32.4351 24.9536 37.8677 27.8936 39.4267C28.0346 39.4994 28.1901 39.5332 28.3504 39.5332L28.3553 39.5284Z" fill="white"/>
<path d="M38.891 40.5549H28.613C28.2936 40.5549 28.0347 40.8128 28.0347 41.131V42.419C28.0347 42.7372 28.2936 42.9952 28.613 42.9952H38.891C39.2104 42.9952 39.4693 42.7372 39.4693 42.419V41.131C39.4693 40.8128 39.2104 40.5549 38.891 40.5549Z" fill="#10840D"/>
</g>
<defs>
<filter id="filter0_d_542_3648" x="0.8" y="0.8" width="62.4" height="62.4" filterUnits="userSpaceOnUse" color-interpolation-filters="sRGB">
<feFlood flood-opacity="0" result="BackgroundImageFix"/>
<feColorMatrix in="SourceAlpha" type="matrix" values="0 0 0 0 0 0 0 0 0 0 0 0 0 0 0 0 0 0 127 0" result="hardAlpha"/>
<feOffset dy="4"/>
<feGaussianBlur stdDeviation="5.1"/>
<feComposite in2="hardAlpha" operator="out"/>
<feColorMatrix type="matrix" values="0 0 0 0 0 0 0 0 0 0 0 0 0 0 0 0 0 0 0.12 0"/>
<feBlend mode="normal" in2="BackgroundImageFix" result="effect1_dropShadow_542_3648"/>
<feBlend mode="normal" in="SourceGraphic" in2="effect1_dropShadow_542_3648" result="shape"/>
</filter>
<clipPath id="clip0_542_3648">
<rect width="18" height="30" fill="white" transform="translate(23 13)"/>
</clipPath>
</defs>
</svg>
