<svg width="21" height="20" viewBox="0 0 21 20" fill="none" xmlns="http://www.w3.org/2000/svg">
<path d="M2.40845 6.48335V14.5917C2.40845 16.175 3.53345 16.825 4.90011 16.0417L6.85845 14.925C7.28345 14.6834 7.99178 14.6584 8.43345 14.8834L12.8084 17.075C13.2501 17.2917 13.9584 17.275 14.3834 17.0334L17.9918 14.9667C18.4501 14.7 18.8334 14.05 18.8334 13.5167V5.40835C18.8334 3.82502 17.7084 3.17502 16.3418 3.95835L14.3834 5.07502C13.9584 5.31669 13.2501 5.34169 12.8084 5.11669L8.43345 2.93335C7.99178 2.71669 7.28345 2.73335 6.85845 2.97502L3.25011 5.04169C2.78345 5.30835 2.40845 5.95835 2.40845 6.48335Z" stroke="#5B5B5B" stroke-linecap="round" stroke-linejoin="round"/>
<path opacity="0.33" d="M6 4.07514V10.811C6 12.1263 6.9589 12.6663 8.1238 12.0155L9.793 11.0879C10.1553 10.8871 10.759 10.8664 11.1355 11.0533L14.8645 12.8739C15.0594 12.9671 15.3152 13.0084 15.5669 12.9986C15.8014 12.9895 16.0323 12.9362 16.207 12.8393L19.2826 11.1225C19.6733 10.901 20 10.361 20 9.91794V3.18211C20 1.86679 19.0411 1.32681 17.8762 1.97755L16.207 2.9052C16.0323 3.00202 15.8014 3.05698 15.5669 3.06696C15.3152 3.07768 15.0594 3.03658 14.8645 2.93981L11.1355 1.12605C10.759 0.946061 10.1553 0.959907 9.793 1.16067L6.7174 2.87751C6.31963 3.09903 6 3.63901 6 4.07514Z" fill="#5B5B5B"/>
<path d="M7.6333 3.33331V14.1666" stroke="#5B5B5B" stroke-linecap="round" stroke-linejoin="round"/>
<path d="M13.6084 5.51666V16.6667" stroke="#5B5B5B" stroke-linecap="round" stroke-linejoin="round"/>
</svg>
