<svg width="20" height="20" viewBox="0 0 20 20" fill="none" xmlns="http://www.w3.org/2000/svg">
<g opacity="0.4">
<path d="M15.3417 15.0749L12.9917 17.4249" stroke="#022C58" stroke-linecap="round" stroke-linejoin="round"/>
<path d="M15.3417 17.4249L12.9917 15.0749" stroke="#022C58" stroke-linecap="round" stroke-linejoin="round"/>
</g>
<path opacity="0.4" d="M10.1331 9.05835C10.0498 9.05002 9.9498 9.05002 9.85814 9.05835C7.8748 8.99169 6.2998 7.36669 6.2998 5.36669C6.2998 3.32502 7.9498 1.66669 9.9998 1.66669C12.0415 1.66669 13.6998 3.32502 13.6998 5.36669C13.6915 7.36669 12.1165 8.99169 10.1331 9.05835Z" stroke="#022C58" stroke-linecap="round" stroke-linejoin="round"/>
<path d="M10 18.175C8.48333 18.175 6.975 17.7917 5.825 17.025C3.80833 15.675 3.80833 13.475 5.825 12.1333C8.11667 10.6 11.875 10.6 14.1667 12.1333" stroke="#022C58" stroke-linecap="round" stroke-linejoin="round"/>
</svg>
