<svg width="46" height="46" viewBox="0 0 46 46" fill="none" xmlns="http://www.w3.org/2000/svg">
<rect width="46" height="46" rx="4" fill="#F5F5F5"/>
<path d="M32.4615 17V29C32.4615 33.8 31.3077 35 26.6923 35H19.7692C15.1538 35 14 33.8 14 29V17C14 12.2 15.1538 11 19.7692 11H26.6923C31.3077 11 32.4615 12.2 32.4615 17Z" stroke="#022C58" stroke-width="1.2" stroke-linecap="round" stroke-linejoin="round"/>
<path opacity="0.8" d="M34.7692 15.3999V27.3999C34.7692 32.1999 33.6153 33.3999 28.9999 33.3999H22.0768C17.4615 33.3999 16.3076 32.1999 16.3076 27.3999V15.3999C16.3076 10.5999 17.4615 9.3999 22.0768 9.3999H28.9999C33.6153 9.3999 34.7692 10.5999 34.7692 15.3999Z" fill="url(#paint0_linear_541_3393)"/>
<path d="M25.5382 15.2H20.9229" stroke="#022C58" stroke-width="1.2" stroke-linecap="round" stroke-linejoin="round"/>
<path d="M23.2308 31.5198C24.2186 31.5198 25.0193 30.6871 25.0193 29.6598C25.0193 28.6326 24.2186 27.7998 23.2308 27.7998C22.2431 27.7998 21.4424 28.6326 21.4424 29.6598C21.4424 30.6871 22.2431 31.5198 23.2308 31.5198Z" stroke="#022C58" stroke-width="1.2" stroke-linecap="round" stroke-linejoin="round"/>
<defs>
<linearGradient id="paint0_linear_541_3393" x1="40.923" y1="7.5999" x2="22.1888" y2="37.9759" gradientUnits="userSpaceOnUse">
<stop offset="0.03818" stop-color="#CC375B"/>
<stop offset="0.983988" stop-color="#CC375B" stop-opacity="0.11"/>
</linearGradient>
</defs>
</svg>
