<svg width="17" height="16" viewBox="0 0 17 16" fill="none" xmlns="http://www.w3.org/2000/svg">
<path d="M8.50016 1.33325C6.7535 1.33325 5.3335 2.75325 5.3335 4.49992C5.3335 6.21325 6.6735 7.59992 8.42016 7.65992C8.4735 7.65325 8.52683 7.65325 8.56683 7.65992C8.58016 7.65992 8.58683 7.65992 8.60016 7.65992C8.60683 7.65992 8.60683 7.65992 8.6135 7.65992C10.3202 7.59992 11.6602 6.21325 11.6668 4.49992C11.6668 2.75325 10.2468 1.33325 8.50016 1.33325Z" fill="#FF5C00"/>
<path d="M11.8866 9.43342C10.0266 8.19342 6.99331 8.19342 5.11997 9.43342C4.27331 10.0001 3.80664 10.7668 3.80664 11.5868C3.80664 12.4068 4.27331 13.1668 5.11331 13.7268C6.04664 14.3534 7.27331 14.6668 8.49997 14.6668C9.72664 14.6668 10.9533 14.3534 11.8866 13.7268C12.7266 13.1601 13.1933 12.4001 13.1933 11.5734C13.1866 10.7534 12.7266 9.99342 11.8866 9.43342Z" fill="#FF5C00"/>
</svg>
