<svg width="32" height="32" viewBox="0 0 32 32" fill="none" xmlns="http://www.w3.org/2000/svg">
<rect width="32" height="32" rx="4" fill="#022C58" fill-opacity="0.05"/>
<path d="M8.5 23.5H23.5" stroke="#022C58" stroke-miterlimit="10" stroke-linecap="round" stroke-linejoin="round"/>
<path d="M14.3125 10V23.5H17.6875V10C17.6875 9.175 17.35 8.5 16.3375 8.5H15.6625C14.65 8.5 14.3125 9.175 14.3125 10Z" stroke="#022C58" stroke-linecap="round" stroke-linejoin="round"/>
<path opacity="0.4" d="M9.25 14.5V23.5H12.25V14.5C12.25 13.675 11.95 13 11.05 13H10.45C9.55 13 9.25 13.675 9.25 14.5Z" stroke="#022C58" stroke-linecap="round" stroke-linejoin="round"/>
<path opacity="0.4" d="M19.75 18.25V23.5H22.75V18.25C22.75 17.425 22.45 16.75 21.55 16.75H20.95C20.05 16.75 19.75 17.425 19.75 18.25Z" stroke="#022C58" stroke-linecap="round" stroke-linejoin="round"/>
</svg>
