<svg width="21" height="20" viewBox="0 0 21 20" fill="none" xmlns="http://www.w3.org/2000/svg">
<path fill-rule="evenodd" clip-rule="evenodd" d="M7.46131 2.86224C7.81016 2.65469 8.27992 2.7703 8.50298 3.14192L8.59119 3.29427L8.59192 3.29556C9.03359 4.06531 9.70334 4.58969 10.5011 4.58969C11.2984 4.58969 11.9702 4.0656 12.416 3.29659L12.5055 3.14192C12.7286 2.7703 13.1983 2.65477 13.5471 2.86232L14.9983 3.69276C15.4544 3.95336 15.6114 4.54392 15.3508 4.99548C14.9051 5.76463 14.7853 6.60759 15.1836 7.29863C15.5818 7.98971 16.3711 8.30844 17.2584 8.30844C17.782 8.30844 18.2167 8.73909 18.2167 9.26678V10.7334C18.2167 11.2571 17.7861 11.6918 17.2584 11.6918C16.3711 11.6918 15.5818 12.0105 15.1836 12.7016C14.7856 13.3922 14.9049 14.2345 15.3499 15.0033C15.6127 15.4649 15.4529 16.0477 14.998 16.3077L13.5563 17.1326L13.5472 17.138C13.1983 17.3455 12.7286 17.2299 12.5055 16.8583L12.4173 16.7059L12.4167 16.7049C11.975 15.935 11.3052 15.4105 10.5074 15.4105C9.71011 15.4105 9.03825 15.9346 8.59252 16.7036L8.50296 16.8583C8.27989 17.2299 7.8102 17.3454 7.46135 17.1379L6.01017 16.3075C5.55417 16.0469 5.3971 15.4564 5.65766 15.0049C6.1034 14.2357 6.22319 13.3927 5.82493 12.7016C5.42668 12.0105 4.63741 11.6918 3.75008 11.6918C3.2224 11.6918 2.79175 11.2571 2.79175 10.7334V9.26678C2.79175 8.74315 3.2224 8.30844 3.75008 8.30844C4.63741 8.30844 5.42668 7.98971 5.82493 7.29863C6.22317 6.60758 6.10341 5.76461 5.65772 4.99544C5.39707 4.5439 5.55447 3.95316 6.01051 3.69257L7.45222 2.86765L7.46131 2.86224ZM5.65772 4.99544C5.65764 4.9953 5.65756 4.99516 5.65748 4.99503L5.11675 5.30844L5.65791 4.99577C5.65785 4.99566 5.65779 4.99555 5.65772 4.99544ZM9.57888 2.50555C9.01889 1.5643 7.79334 1.2139 6.82715 1.78504L5.38966 2.60765C4.3294 3.21376 3.9699 4.57282 4.57558 5.62112L4.57601 5.62186C4.88846 6.16092 4.83942 6.50527 4.7419 6.67451C4.64431 6.84385 4.37109 7.05844 3.75008 7.05844C2.52777 7.05844 1.54175 8.05707 1.54175 9.26678V10.7334C1.54175 11.9431 2.52777 12.9418 3.75008 12.9418C4.37109 12.9418 4.64431 13.1564 4.7419 13.3257C4.83942 13.495 4.88846 13.8393 4.57601 14.3784L4.57558 14.3791C3.9699 15.4274 4.32973 16.7867 5.38999 17.3928L6.82722 18.2152C7.7934 18.7863 9.01894 18.4359 9.57892 17.4947L9.67431 17.3299C9.98686 16.7908 10.3109 16.6605 10.5074 16.6605C10.7029 16.6605 11.0245 16.7897 11.3329 17.3276L11.3342 17.3299L11.4258 17.4883L11.4296 17.4947C11.9896 18.4359 13.2151 18.7863 14.1813 18.2152L15.6188 17.3926C16.6798 16.786 17.0371 15.4364 16.4344 14.3817L16.4325 14.3784C16.12 13.8393 16.1691 13.495 16.2666 13.3257C16.3642 13.1564 16.6374 12.9418 17.2584 12.9418C18.4807 12.9418 19.4667 11.9431 19.4667 10.7334V9.26678C19.4667 8.04446 18.4681 7.05844 17.2584 7.05844C16.6374 7.05844 16.3642 6.84385 16.2666 6.67451C16.1691 6.50527 16.12 6.16092 16.4325 5.62186L16.4329 5.62112C17.0387 4.57271 16.679 3.21347 15.6185 2.60746L14.1814 1.78505C13.2152 1.2139 11.9896 1.56427 11.4296 2.50553L11.3342 2.6703C11.0216 3.2094 10.6976 3.33969 10.5011 3.33969C10.3056 3.33969 9.98398 3.21049 9.67564 2.67261L9.67431 2.6703L9.58268 2.51194L9.57888 2.50555ZM8.62508 10.0001C8.62508 8.96457 9.46455 8.1251 10.5001 8.1251C11.5356 8.1251 12.3751 8.96457 12.3751 10.0001C12.3751 11.0356 11.5356 11.8751 10.5001 11.8751C9.46455 11.8751 8.62508 11.0356 8.62508 10.0001ZM10.5001 6.8751C8.77419 6.8751 7.37508 8.27421 7.37508 10.0001C7.37508 11.726 8.77419 13.1251 10.5001 13.1251C12.226 13.1251 13.6251 11.726 13.6251 10.0001C13.6251 8.27421 12.226 6.8751 10.5001 6.8751Z" fill="#9DB2CE"/>
</svg>
