<svg width="21" height="20" viewBox="0 0 21 20" fill="none" xmlns="http://www.w3.org/2000/svg">
<path d="M8.83317 5.00002H12.1665C13.8332 5.00002 13.8332 4.16669 13.8332 3.33335C13.8332 1.66669 12.9998 1.66669 12.1665 1.66669H8.83317C7.99984 1.66669 7.1665 1.66669 7.1665 3.33335C7.1665 5.00002 7.99984 5.00002 8.83317 5.00002Z" stroke="#9DB2CE" stroke-width="1.2" stroke-miterlimit="10" stroke-linecap="round" stroke-linejoin="round"/>
<path d="M10.5 18.3333L8 18.3333C3.83333 18.3333 3 16.6666 3 13.3333V8.33331C3 4.53331 4.39167 3.49998 7.16667 3.34998" stroke="#9DB2CE" stroke-width="1.2" stroke-miterlimit="10" stroke-linecap="round" stroke-linejoin="round"/>
<path d="M13.8335 3.34998C16.6085 3.49998 18.0002 4.52498 18.0002 8.33331V10.4166" stroke="#9DB2CE" stroke-width="1.2" stroke-miterlimit="10" stroke-linecap="round" stroke-linejoin="round"/>
<path d="M16.3659 12.9775L13.416 15.9275C13.2993 16.0442 13.1909 16.2608 13.1659 16.4192L13.0076 17.5442C12.9493 17.9525 13.2326 18.2359 13.641 18.1775L14.766 18.0192C14.9243 17.9942 15.1493 17.8858 15.2576 17.7692L18.2076 14.8192C18.716 14.3109 18.9576 13.7192 18.2076 12.9692C17.466 12.2275 16.8743 12.4692 16.3659 12.9775Z" stroke="#9DB2CE" stroke-width="1.2" stroke-miterlimit="10" stroke-linecap="round" stroke-linejoin="round"/>
<path d="M15.9409 13.4025C16.1909 14.3025 16.8909 15.0025 17.7909 15.2525" stroke="#9DB2CE" stroke-width="1.2" stroke-miterlimit="10" stroke-linecap="round" stroke-linejoin="round"/>
</svg>
