<svg width="20" height="20" viewBox="0 0 20 20" fill="none" xmlns="http://www.w3.org/2000/svg">
<path d="M15.2667 10C17.4333 10 18.3333 9.16667 17.5333 6.43334C16.9917 4.59167 15.4083 3.00834 13.5667 2.46667C10.8333 1.66667 10 2.56667 10 4.73334V7.13334C10 9.16667 10.8333 10 12.5 10H15.2667Z" stroke="#5B5B5B" stroke-linecap="round" stroke-linejoin="round"/>
<path opacity="0.33" d="M16.7134 7C18.6525 7 19.458 6.2542 18.742 3.80799C18.2572 2.15977 16.8402 0.742756 15.192 0.257988C12.7458 -0.457978 12 0.347483 12 2.28656V4.43446C12 6.2542 12.7458 7 14.2374 7H16.7134Z" fill="#5B5B5B"/>
<path d="M16.6667 12.25C15.8917 16.1083 12.1917 18.9083 7.98336 18.225C4.82502 17.7167 2.28336 15.175 1.76669 12.0167C1.09169 7.82501 3.87502 4.12501 7.71669 3.34167" stroke="#5B5B5B" stroke-linecap="round" stroke-linejoin="round"/>
</svg>
