<svg width="21" height="20" viewBox="0 0 21 20" fill="none" xmlns="http://www.w3.org/2000/svg">
<path d="M2.16699 9.99998V12.5C2.16699 16.6666 3.83366 18.3333 8.00033 18.3333H13.0003C17.167 18.3333 18.8337 16.6666 18.8337 12.5V7.49998C18.8337 4.89998 18.1836 3.26664 16.6753 2.41664C16.3644 2.23987 15.8262 2.09431 15.2563 1.97997C14.8379 1.89604 14.411 1.86664 13.9843 1.86664H12.5628" stroke="#022C58" stroke-width="1.2" stroke-linecap="round" stroke-linejoin="round"/>
<path opacity="0.4" d="M11.3335 10.8333H15.5002" stroke="#022C58" stroke-width="1.2" stroke-linecap="round" stroke-linejoin="round"/>
<path opacity="0.4" d="M9.6665 14.1667H15.4998" stroke="#022C58" stroke-width="1.2" stroke-linecap="round" stroke-linejoin="round"/>
<path opacity="0.4" d="M5.55511 8.65491C3.38844 8.65491 2.48844 7.82158 3.28844 5.08825C3.83011 3.24658 5.41344 1.66325 7.25511 1.12158C9.98844 0.321581 10.8218 1.22158 10.8218 3.38825V5.78825C10.8218 7.82158 9.98844 8.65491 8.32178 8.65491H5.55511Z" stroke="#022C58" stroke-width="1.2" stroke-linecap="round" stroke-linejoin="round"/>
</svg>
