<svg width="46" height="46" viewBox="0 0 46 46" fill="none" xmlns="http://www.w3.org/2000/svg">
<rect width="46" height="46" rx="4" fill="#F5F5F5"/>
<path d="M33 22.3303V27.1102C33 30.6202 32.11 31.5002 28.56 31.5002H17.44C13.89 31.5002 13 30.6202 13 27.1102V18.8903C13 15.3803 13.89 14.5002 17.44 14.5002H24.28" stroke="#022C58" stroke-width="1.2" stroke-linecap="round" stroke-linejoin="round"/>
<rect opacity="0.8" x="15.2861" y="12.7144" width="19.7143" height="17.1429" rx="4" fill="url(#paint0_linear_541_3407)"/>
<path d="M13 19.5H24" stroke="#022C58" stroke-width="1.2" stroke-miterlimit="10" stroke-linecap="round" stroke-linejoin="round"/>
<path d="M17 27.5H19" stroke="#022C58" stroke-width="1.2" stroke-miterlimit="10" stroke-linecap="round" stroke-linejoin="round"/>
<path d="M21.5 27.5H25.5" stroke="#022C58" stroke-width="1.2" stroke-miterlimit="10" stroke-linecap="round" stroke-linejoin="round"/>
<path d="M33.9759 17.6028C33.9759 17.9844 33.9123 18.3348 33.7851 18.654C33.6579 18.9732 33.4791 19.248 33.2487 19.4784C33.0183 19.7088 32.7411 19.8876 32.4171 20.0148C32.0931 20.142 31.7331 20.2056 31.3371 20.2056H30.3535C29.8012 20.2056 29.3535 19.7579 29.3535 19.2056V16C29.3535 15.4477 29.8012 15 30.3535 15H31.3371C31.7331 15 32.0931 15.0648 32.4171 15.1944C32.7411 15.3216 33.0183 15.5004 33.2487 15.7308C33.4791 15.9588 33.6579 16.2324 33.7851 16.5516C33.9123 16.8708 33.9759 17.2212 33.9759 17.6028ZM32.9823 17.6028C32.9823 17.3172 32.9439 17.0616 32.8671 16.836C32.7927 16.608 32.6835 16.416 32.5395 16.26C32.3979 16.1016 32.2251 15.9804 32.0211 15.8964C31.8195 15.8124 31.5915 15.7704 31.3371 15.7704H30.7255C30.5046 15.7704 30.3255 15.9495 30.3255 16.1704V19.0352C30.3255 19.2561 30.5046 19.4352 30.7255 19.4352H31.3371C31.5915 19.4352 31.8195 19.3932 32.0211 19.3092C32.2251 19.2252 32.3979 19.1052 32.5395 18.9492C32.6835 18.7908 32.7927 18.5988 32.8671 18.3732C32.9439 18.1452 32.9823 17.8884 32.9823 17.6028Z" fill="#022C58"/>
<path d="M27.972 19.7196C27.972 19.988 27.7544 20.2056 27.486 20.2056C27.2176 20.2056 27 19.988 27 19.7196V15.486C27 15.2176 27.2176 15 27.486 15C27.7544 15 27.972 15.2176 27.972 15.486V19.7196Z" fill="#022C58"/>
<defs>
<linearGradient id="paint0_linear_541_3407" x1="41.5718" y1="11.4286" x2="31.0132" y2="37.023" gradientUnits="userSpaceOnUse">
<stop offset="0.03818" stop-color="#CC375B"/>
<stop offset="0.983988" stop-color="#CC375B" stop-opacity="0.11"/>
</linearGradient>
</defs>
</svg>
