<svg width="32" height="32" viewBox="0 0 32 32" fill="none" xmlns="http://www.w3.org/2000/svg">
<rect width="32" height="32" rx="4" fill="#022C58" fill-opacity="0.05"/>
<path d="M13.8699 15.1525C13.7949 15.145 13.7049 15.145 13.6224 15.1525C11.8374 15.0925 10.4199 13.63 10.4199 11.83C10.4199 9.9925 11.9049 8.5 13.7499 8.5C15.5874 8.5 17.0799 9.9925 17.0799 11.83C17.0724 13.63 15.6549 15.0925 13.8699 15.1525Z" stroke="#022C58" stroke-linecap="round" stroke-linejoin="round"/>
<path opacity="0.4" d="M19.3075 10C20.7625 10 21.9325 11.1775 21.9325 12.625C21.9325 14.0425 20.8075 15.1975 19.405 15.25C19.345 15.2425 19.2775 15.2425 19.21 15.25" stroke="#022C58" stroke-linecap="round" stroke-linejoin="round"/>
<path d="M10.12 17.92C8.30504 19.135 8.30504 21.115 10.12 22.3225C12.1825 23.7025 15.565 23.7025 17.6275 22.3225C19.4425 21.1075 19.4425 19.1275 17.6275 17.92C15.5725 16.5475 12.19 16.5475 10.12 17.92Z" stroke="#022C58" stroke-linecap="round" stroke-linejoin="round"/>
<path opacity="0.4" d="M20.7549 22C21.2949 21.8875 21.8049 21.67 22.2249 21.3475C23.3949 20.47 23.3949 19.0225 22.2249 18.145C21.8124 17.83 21.3099 17.62 20.7774 17.5" stroke="#022C58" stroke-linecap="round" stroke-linejoin="round"/>
</svg>
