<svg width="106" height="116" viewBox="0 0 106 116" fill="none" xmlns="http://www.w3.org/2000/svg">
<g filter="url(#filter0_d_29_142)">
<path d="M3.99996 70.2227L39.1066 58.9518L51.7404 98.5842L16.6338 109.855L3.99996 70.2227Z" fill="url(#paint0_linear_29_142)"/>
</g>
<path d="M29.6718 48.4883C29.7515 48.7283 29.3497 58.3119 30.944 60.0718C31.9005 61.3518 40.8125 62.3021 40.8125 62.3021L44.3932 59.931L47.4159 50.0018L40.5733 44.3317L29.6718 48.4851V48.4883Z" fill="url(#paint1_linear_29_142)"/>
<path d="M36.1796 42.8149C36.2593 43.0549 36.7376 54.872 36.7376 54.872L47.3203 56.6287L50.901 54.2576L53.9237 44.3285L47.0811 38.6583L36.1796 42.8117V42.8149Z" fill="url(#paint2_linear_29_142)"/>
<path opacity="0.6" d="M41.9763 39.5031C42.0561 39.7431 42.5343 51.5602 42.5343 51.5602L53.117 53.3169L56.6977 50.9458L59.7205 41.0166L52.8779 35.3465L41.9763 39.4999V39.5031Z" fill="url(#paint3_linear_29_142)"/>
<path d="M26.2696 70.6442C26.2569 70.7082 26.2537 70.7722 26.2537 70.8362C26.2537 71.4281 26.7383 71.8889 27.2931 71.9017C27.4526 71.9017 27.6184 71.8697 27.7778 71.7929L33.5171 69.0378L39.5594 66.1356L49.0707 64.4012C50.9743 64.0524 52.7886 63.3069 54.3892 62.2125L60.4091 58.0975C61.8599 57.1023 63.1098 55.8416 64.0951 54.3793L67.1433 49.8387L69.6144 47.8036L61.6558 24.6718C61.4103 24.7517 45.4581 30.0315 38.099 32.4666C35.7268 33.2506 33.6734 34.7769 32.229 36.8184L23.773 48.7987C23.2724 49.5059 22.9057 50.3026 22.6889 51.1442L19.0157 65.4412L26.4099 63.0029L29.71 52.7217L37.8344 45.1125L47.4255 47.3492L45.4103 55.2496L33.9858 59.5662L29.5729 64.1548C27.8543 65.9404 26.7033 68.1995 26.2696 70.6442Z" fill="url(#paint4_radial_29_142)"/>
<path d="M95.1449 6.79411L111.967 0L110.179 6.79411V39.5927L89.9858 44.6581L80.1142 12.6819L95.1449 6.79411Z" fill="url(#paint5_linear_29_142)"/>
<path d="M80.1142 12.6819L89.9858 44.6581L73.6606 50.5842L64.4522 19.7439L80.1142 12.6819Z" fill="url(#paint6_radial_29_142)"/>
<path d="M60.8332 22.7902L64.9273 20.9023L73.4534 49.1315L69.7356 50.5842L60.8332 22.7902Z" fill="url(#paint7_linear_29_142)"/>
<path opacity="0.54" d="M27.2931 71.9017C27.4525 71.9017 27.6183 71.8697 27.7778 71.7929L33.5171 69.0378C33.2078 68.401 32.8985 67.761 32.5892 67.1243C32.5382 67.0219 32.4872 66.9195 32.4011 66.8491C32.2194 66.7051 31.9547 66.7563 31.7315 66.8235C30.2967 67.2587 28.983 68.0938 27.9754 69.2074C27.7491 69.4634 27.5322 69.7354 27.4143 70.0553C27.3122 70.3273 27.2867 70.6153 27.274 70.9033C27.2548 71.2361 27.2485 71.5721 27.2931 71.9017Z" fill="url(#paint8_linear_29_142)"/>
<path d="M21.6109 84.5667L23.8467 87.5816L23.8933 87.5666L23.9703 83.8092L24.6479 83.5917L24.478 88.2292L23.7538 88.4617L20.9333 84.7843L21.6109 84.5667ZM29.3131 84.3854C29.4546 84.8293 29.4951 85.237 29.4347 85.6085C29.3737 85.9787 29.2294 86.2951 29.0015 86.5577C28.7745 86.8185 28.4818 87.0065 28.1234 87.1215C27.7637 87.237 27.4153 87.2549 27.0783 87.1751C26.7422 87.0936 26.4421 86.9191 26.178 86.6518C25.9138 86.3846 25.7113 86.0296 25.5702 85.5871C25.4287 85.1432 25.3884 84.7362 25.4493 84.366C25.5098 83.9945 25.6535 83.6784 25.8804 83.4175C26.1083 83.1549 26.4021 82.9658 26.7619 82.8503C27.1203 82.7353 27.4675 82.7185 27.8036 82.8001C28.1407 82.8799 28.4412 83.0534 28.7054 83.3207C28.969 83.5866 29.1716 83.9415 29.3131 84.3854ZM28.6923 84.5847C28.5845 84.2464 28.4389 83.9791 28.2556 83.7828C28.0732 83.5848 27.8683 83.4566 27.641 83.3983C27.4146 83.3382 27.1824 83.3464 26.9444 83.4228C26.705 83.4997 26.5105 83.6285 26.3609 83.8093C26.2109 83.9888 26.1182 84.2124 26.0828 84.4804C26.0484 84.7466 26.0851 85.0488 26.193 85.3871C26.3008 85.7255 26.446 85.9937 26.6284 86.1917C26.8117 86.388 27.0166 86.5161 27.2429 86.5762C27.4689 86.635 27.7016 86.6259 27.941 86.5491C28.179 86.4726 28.373 86.3447 28.523 86.1653C28.674 85.984 28.7667 85.7603 28.8011 85.4942C28.8365 85.2262 28.8002 84.9231 28.6923 84.5847ZM29.2207 82.7188L29.0486 82.1789L32.2641 81.1465L32.4362 81.6865L31.1399 82.1027L32.2931 85.7202L31.6682 85.9208L30.515 82.3033L29.2207 82.7188ZM34.2999 85.0759L32.9746 80.9184L35.5795 80.0821L35.7516 80.6221L33.7736 81.2572L34.1774 82.5239L36.0195 81.9325L36.191 82.4705L34.3489 83.0618L34.7547 84.3347L36.757 83.6918L36.9291 84.2318L34.2999 85.0759Z" fill="#546E7A"/>
<defs>
<filter id="filter0_d_29_142" x="0" y="56.9518" width="55.7405" height="58.9033" filterUnits="userSpaceOnUse" color-interpolation-filters="sRGB">
<feFlood flood-opacity="0" result="BackgroundImageFix"/>
<feColorMatrix in="SourceAlpha" type="matrix" values="0 0 0 0 0 0 0 0 0 0 0 0 0 0 0 0 0 0 127 0" result="hardAlpha"/>
<feOffset dy="2"/>
<feGaussianBlur stdDeviation="2"/>
<feComposite in2="hardAlpha" operator="out"/>
<feColorMatrix type="matrix" values="0 0 0 0 0 0 0 0 0 0 0 0 0 0 0 0 0 0 0.06 0"/>
<feBlend mode="normal" in2="BackgroundImageFix" result="effect1_dropShadow_29_142"/>
<feBlend mode="normal" in="SourceGraphic" in2="effect1_dropShadow_29_142" result="shape"/>
</filter>
<linearGradient id="paint0_linear_29_142" x1="27.2217" y1="93.4869" x2="29.7906" y2="57.8098" gradientUnits="userSpaceOnUse">
<stop stop-color="#FAFDFF"/>
<stop offset="0.99" stop-color="#E1E6E8"/>
</linearGradient>
<linearGradient id="paint1_linear_29_142" x1="38.9791" y1="54.6928" x2="31.7278" y2="34.9759" gradientUnits="userSpaceOnUse">
<stop stop-color="#FCD0A8"/>
<stop offset="0.08" stop-color="#F3C49B"/>
<stop offset="0.34" stop-color="#DCA678"/>
<stop offset="0.59" stop-color="#CC9060"/>
<stop offset="0.82" stop-color="#C28351"/>
<stop offset="1" stop-color="#BF7F4C"/>
</linearGradient>
<linearGradient id="paint2_linear_29_142" x1="48.4458" y1="55.48" x2="40.4303" y2="40.4642" gradientUnits="userSpaceOnUse">
<stop stop-color="#FCD0A8"/>
<stop offset="0.08" stop-color="#F3C49B"/>
<stop offset="0.34" stop-color="#DCA678"/>
<stop offset="0.59" stop-color="#CC9060"/>
<stop offset="0.82" stop-color="#C28351"/>
<stop offset="1" stop-color="#BF7F4C"/>
</linearGradient>
<linearGradient id="paint3_linear_29_142" x1="54.8038" y1="53.5377" x2="48.8172" y2="41.821" gradientUnits="userSpaceOnUse">
<stop stop-color="#FCD0A8"/>
<stop offset="0.08" stop-color="#F3C49B"/>
<stop offset="0.34" stop-color="#DCA678"/>
<stop offset="0.59" stop-color="#CC9060"/>
<stop offset="0.82" stop-color="#C28351"/>
<stop offset="1" stop-color="#BF7F4C"/>
</linearGradient>
<radialGradient id="paint4_radial_29_142" cx="0" cy="0" r="1" gradientUnits="userSpaceOnUse" gradientTransform="translate(44.8759 50.6716) rotate(143.072) scale(39.9075 30.3598)">
<stop stop-color="#F0C39C"/>
<stop offset="0.3" stop-color="#F6C9A1"/>
<stop offset="0.61" stop-color="#E4B38A"/>
<stop offset="0.66" stop-color="#E1B087"/>
<stop offset="0.93" stop-color="#C58857"/>
<stop offset="1" stop-color="#BF7F4C"/>
</radialGradient>
<linearGradient id="paint5_linear_29_142" x1="107.96" y1="43.0389" x2="91.0667" y2="6.18025" gradientUnits="userSpaceOnUse">
<stop stop-color="#25253A"/>
<stop offset="0.1" stop-color="#333351"/>
<stop offset="0.21" stop-color="#3D3D61"/>
<stop offset="0.33" stop-color="#43446B"/>
<stop offset="0.49" stop-color="#45466E"/>
<stop offset="0.58" stop-color="#424369"/>
<stop offset="0.68" stop-color="#3A3B5D"/>
<stop offset="0.78" stop-color="#2D2D48"/>
<stop offset="0.88" stop-color="#1A1B2A"/>
<stop offset="0.99" stop-color="#030305"/>
<stop offset="1"/>
</linearGradient>
<radialGradient id="paint6_radial_29_142" cx="0" cy="0" r="1" gradientUnits="userSpaceOnUse" gradientTransform="translate(77.3434 13.677) rotate(180) scale(60.0303 60.2438)">
<stop stop-color="#151522"/>
<stop offset="0.49" stop-color="#464770"/>
<stop offset="0.57" stop-color="#404167"/>
<stop offset="0.69" stop-color="#323351"/>
<stop offset="0.84" stop-color="#1C1C2C"/>
<stop offset="1"/>
</radialGradient>
<linearGradient id="paint7_linear_29_142" x1="73.1855" y1="49.4771" x2="61.3523" y2="21.9054" gradientUnits="userSpaceOnUse">
<stop offset="0.51" stop-color="white"/>
<stop offset="0.91" stop-color="#D3E3EF"/>
</linearGradient>
<linearGradient id="paint8_linear_29_142" x1="33.3385" y1="67.2235" x2="21.1729" y2="75.4007" gradientUnits="userSpaceOnUse">
<stop stop-color="#FCDFCC"/>
<stop offset="0.29" stop-color="#FCD4BC"/>
<stop offset="0.68" stop-color="#FCCBAD"/>
<stop offset="1" stop-color="#FCC8A8"/>
</linearGradient>
</defs>
</svg>
